<?xml version="1.0" encoding="UTF-8"?>
<svg width="132px" height="54px" viewBox="0 0 132 54" version="1.1" xmlns="http://www.w3.org/2000/svg" xmlns:xlink="http://www.w3.org/1999/xlink">
    <!-- Generator: Sketch 52.2 (67145) - http://www.bohemiancoding.com/sketch -->
    <title>Group 2 Copy</title>
    <desc>Created with Sketch.</desc>
    <g id="3.Visual-interface" stroke="none" stroke-width="1" fill="none" fill-rule="evenodd">
        <g id="Group-2-Copy" transform="translate(1.000000, 1.000000)" fill="#000000">
            <path d="M0,50.9814453 L0,38.1845703 L4.12207031,38.1845703 C5.25293534,38.1845703 6.26952674,38.4409154 7.171875,38.9536133 C8.07422326,39.4663112 8.77880606,40.1899367 9.28564453,41.1245117 C9.792483,42.0590867 10.0488281,43.1064395 10.0546875,44.2666016 L10.0546875,44.8554688 C10.0546875,46.0273496 9.80713138,47.0776321 9.31201172,48.0063477 C8.81689206,48.9350632 8.1196334,49.6616185 7.22021484,50.1860352 C6.32079628,50.7104518 5.31738835,50.9755859 4.20996094,50.9814453 L0,50.9814453 Z M3.08496094,40.5664062 L3.08496094,48.6083984 L4.15722656,48.6083984 C5.04199661,48.6083984 5.72167731,48.2934602 6.19628906,47.6635742 C6.67090081,47.0336883 6.90820312,46.0976625 6.90820312,44.8554688 L6.90820312,44.3017578 C6.90820312,43.0654235 6.67090081,42.1337922 6.19628906,41.5068359 C5.72167731,40.8798797 5.03027798,40.5664062 4.12207031,40.5664062 L3.08496094,40.5664062 Z M20.2832422,45.5585938 L15.4316797,45.5585938 L15.4316797,48.6083984 L21.1621484,48.6083984 L21.1621484,50.9814453 L12.3467187,50.9814453 L12.3467187,38.1845703 L21.1797265,38.1845703 L21.1797265,40.5664062 L15.4316797,40.5664062 L15.4316797,43.2646484 L20.2832422,43.2646484 L20.2832422,45.5585938 Z M29.7295703,47.5800781 C29.7295703,47.128904 29.5699039,46.777345 29.2505664,46.5253906 C28.9312288,46.2734362 28.3701993,46.0126967 27.5674609,45.7431641 C26.7647225,45.4736315 26.1084791,45.2128919 25.5987109,44.9609375 C23.9404995,44.1464803 23.1114062,43.0273509 23.1114062,41.6035156 C23.1114062,40.8945277 23.3179471,40.2690457 23.7310351,39.7270508 C24.1441231,39.1850559 24.7285899,38.7631851 25.4844531,38.4614258 C26.2403162,38.1596665 27.0899171,38.0087891 28.0332812,38.0087891 C28.9532077,38.0087891 29.7779065,38.1728499 30.5074023,38.5009766 C31.2368981,38.8291032 31.803787,39.2963837 32.2080859,39.902832 C32.6123848,40.5092804 32.8145312,41.2021445 32.8145312,41.9814453 L29.7383593,41.9814453 C29.7383593,41.4599583 29.578693,41.0556655 29.2593554,40.7685547 C28.9400179,40.4814439 28.5078933,40.3378906 27.9629687,40.3378906 C27.4121847,40.3378906 26.9771305,40.4594714 26.6577929,40.7026367 C26.3384554,40.945802 26.178789,41.2548809 26.178789,41.6298828 C26.178789,41.9580095 26.3545685,42.2553698 26.7061328,42.5219727 C27.057697,42.7885756 27.6758549,43.0639634 28.560625,43.3481445 C29.445395,43.6323256 30.1719502,43.9384749 30.7403125,44.2666016 C32.1231319,45.0634805 32.8145312,46.1621024 32.8145312,47.5625 C32.8145312,48.6816462 32.3926604,49.5605437 31.5489062,50.1992188 C30.705152,50.8378938 29.547937,51.1572266 28.0772265,51.1572266 C27.040112,51.1572266 26.1011565,50.9711933 25.260332,50.5991211 C24.4195075,50.2270489 23.7867013,49.7172884 23.3618945,49.0698242 C22.9370877,48.42236 22.7246875,47.676762 22.7246875,46.8330078 L25.8184375,46.8330078 C25.8184375,47.5185581 25.9956818,48.0239242 26.3501757,48.3491211 C26.7046697,48.674318 27.2803475,48.8369141 28.0772265,48.8369141 C28.5869947,48.8369141 28.9898227,48.7270519 29.2857226,48.5073242 C29.5816225,48.2875966 29.7295703,47.9785176 29.7295703,47.5800781 Z M38.3936718,50.9814453 L35.3174999,50.9814453 L35.3174999,38.1845703 L38.3936718,38.1845703 L38.3936718,50.9814453 Z M51.7247655,49.3994141 C51.2501538,49.9267604 50.5558248,50.3515609 49.6417577,50.6738281 C48.7276907,50.9960954 47.7257476,51.1572266 46.6358984,51.1572266 C44.9601087,51.1572266 43.6212549,50.6445364 42.6192968,49.6191406 C41.6173387,48.5937449 41.0812112,47.1670013 41.0108984,45.3388672 L41.0021093,44.2314453 C41.0021093,42.9716734 41.2247633,41.8715867 41.670078,40.9311523 C42.1153928,39.990718 42.7525934,39.2670924 43.5816991,38.7602539 C44.4108048,38.2534154 45.3702679,38 46.4601171,38 C48.0538751,38 49.2916557,38.3647424 50.173496,39.0942383 C51.0553364,39.8237341 51.5694914,40.9121021 51.7159765,42.359375 L48.7452734,42.359375 C48.6398041,41.6445277 48.4112907,41.1347671 48.0597265,40.8300781 C47.7081622,40.5253891 47.2101203,40.3730469 46.5655859,40.3730469 C45.7921445,40.3730469 45.1944942,40.7011686 44.7726171,41.3574219 C44.35074,42.0136752 44.1368749,42.9511658 44.1310155,44.1699219 L44.1310155,44.9433594 C44.1310155,46.2207095 44.3492751,47.1801726 44.7858007,47.8217773 C45.2223263,48.4633821 45.9093312,48.7841797 46.8468359,48.7841797 C47.6495742,48.7841797 48.2472245,48.6054705 48.6398046,48.2480469 L48.6398046,46.2617188 L46.4952734,46.2617188 L46.4952734,44.1435547 L51.7247655,44.1435547 L51.7247655,49.3994141 Z M64.9152343,50.9814453 L61.8478515,50.9814453 L57.3126952,43.0185547 L57.3126952,50.9814453 L54.2277343,50.9814453 L54.2277343,38.1845703 L57.3126952,38.1845703 L61.8390624,46.1474609 L61.8390624,38.1845703 L64.9152343,38.1845703 L64.9152343,50.9814453 Z M79.3694139,47.5800781 C79.3694139,47.128904 79.2097475,46.777345 78.89041,46.5253906 C78.5710725,46.2734362 78.0100429,46.0126967 77.2073045,45.7431641 C76.4045661,45.4736315 75.7483227,45.2128919 75.2385545,44.9609375 C73.5803431,44.1464803 72.7512498,43.0273509 72.7512498,41.6035156 C72.7512498,40.8945277 72.9577908,40.2690457 73.3708788,39.7270508 C73.7839668,39.1850559 74.3684336,38.7631851 75.1242967,38.4614258 C75.8801599,38.1596665 76.7297608,38.0087891 77.6731248,38.0087891 C78.5930513,38.0087891 79.4177501,38.1728499 80.1472459,38.5009766 C80.8767418,38.8291032 81.4436306,39.2963837 81.8479295,39.902832 C82.2522284,40.5092804 82.4543748,41.2021445 82.4543748,41.9814453 L79.378203,41.9814453 C79.378203,41.4599583 79.2185366,41.0556655 78.8991991,40.7685547 C78.5798615,40.4814439 78.1477369,40.3378906 77.6028123,40.3378906 C77.0520283,40.3378906 76.6169741,40.4594714 76.2976366,40.7026367 C75.978299,40.945802 75.8186327,41.2548809 75.8186327,41.6298828 C75.8186327,41.9580095 75.9944122,42.2553698 76.3459764,42.5219727 C76.6975407,42.7885756 77.3156986,43.0639634 78.2004686,43.3481445 C79.0852386,43.6323256 79.8117939,43.9384749 80.3801561,44.2666016 C81.7629755,45.0634805 82.4543748,46.1621024 82.4543748,47.5625 C82.4543748,48.6816462 82.0325041,49.5605437 81.1887498,50.1992188 C80.3449956,50.8378938 79.1877806,51.1572266 77.7170702,51.1572266 C76.6799556,51.1572266 75.7410001,50.9711933 74.9001756,50.5991211 C74.0593511,50.2270489 73.4265449,49.7172884 73.0017381,49.0698242 C72.5769313,48.42236 72.3645311,47.676762 72.3645311,46.8330078 L75.4582811,46.8330078 C75.4582811,47.5185581 75.6355254,48.0239242 75.9900194,48.3491211 C76.3445133,48.674318 76.9201912,48.8369141 77.7170702,48.8369141 C78.2268383,48.8369141 78.6296663,48.7270519 78.9255663,48.5073242 C79.2214662,48.2875966 79.3694139,47.9785176 79.3694139,47.5800781 Z M94.7923045,40.5664062 L90.9514842,40.5664062 L90.9514842,50.9814453 L87.8665233,50.9814453 L87.8665233,40.5664062 L84.0960155,40.5664062 L84.0960155,38.1845703 L94.7923045,38.1845703 L94.7923045,40.5664062 Z M107.393906,44.8466797 C107.393906,46.0947328 107.162463,47.1992139 106.69957,48.1601562 C106.236677,49.1210986 105.578969,49.8608373 104.726426,50.3793945 C103.873882,50.8979518 102.902701,51.1572266 101.812851,51.1572266 C100.723002,51.1572266 99.756215,50.9067408 98.9124607,50.4057617 C98.0687065,49.9047827 97.4109983,49.1884812 96.9393162,48.2568359 C96.4676342,47.3251907 96.220078,46.2558654 96.1966404,45.0488281 L96.1966404,44.328125 C96.1966404,43.0742125 96.4266186,41.9682665 96.8865818,41.0102539 C97.3465451,40.0522413 98.0057182,39.3125026 98.8641209,38.7910156 C99.7225236,38.2695286 100.699565,38.0087891 101.795273,38.0087891 C102.879263,38.0087891 103.84605,38.266599 104.695664,38.7822266 C105.545277,39.2978541 106.205915,40.0317335 106.677597,40.9838867 C107.14928,41.9360399 107.388047,43.0273376 107.393906,44.2578125 L107.393906,44.8466797 Z M104.256211,44.3105469 C104.256211,43.0390561 104.043811,42.0737338 103.619004,41.4145508 C103.194197,40.7553678 102.586293,40.4257812 101.795273,40.4257812 C100.248391,40.4257812 99.4310159,41.5859259 99.3431248,43.90625 L99.3343357,44.8466797 C99.3343357,46.1005922 99.5423415,47.0644498 99.9583592,47.7382812 C100.374377,48.4121127 100.992535,48.7490234 101.812851,48.7490234 C102.592152,48.7490234 103.192732,48.4179721 103.614609,47.7558594 C104.036486,47.0937467 104.250351,46.1416078 104.256211,44.8994141 L104.256211,44.3105469 Z M114.449609,46.4638672 L112.779687,46.4638672 L112.779687,50.9814453 L109.694726,50.9814453 L109.694726,38.1845703 L114.730859,38.1845703 C116.248445,38.1845703 117.434956,38.521481 118.290429,39.1953125 C119.145903,39.869144 119.573633,40.8212829 119.573633,42.0517578 C119.573633,42.9423873 119.393459,43.6806611 119.033105,44.2666016 C118.672752,44.852542 118.108793,45.3271466 117.341211,45.6904297 L120.013086,50.8496094 L120.013086,50.9814453 L116.708398,50.9814453 L114.449609,46.4638672 Z M112.779687,44.0820312 L114.730859,44.0820312 C115.3168,44.0820312 115.757713,43.9282242 116.053613,43.6206055 C116.349513,43.3129867 116.497461,42.8837918 116.497461,42.3330078 C116.497461,41.7822238 116.348048,41.3500992 116.049219,41.0366211 C115.750389,40.723143 115.31094,40.5664062 114.730859,40.5664062 L112.779687,40.5664062 L112.779687,44.0820312 Z M130.083437,45.5585938 L125.231875,45.5585938 L125.231875,48.6083984 L130.962344,48.6083984 L130.962344,50.9814453 L122.146914,50.9814453 L122.146914,38.1845703 L130.979922,38.1845703 L130.979922,40.5664062 L125.231875,40.5664062 L125.231875,43.2646484 L130.083437,43.2646484 L130.083437,45.5585938 Z" id="DESIGN-STORE"></path>
            <path d="M10.3544922,0 L17.6542969,22.7529297 L24.9316406,0 L35.3085938,0 L35.3085938,32.703125 L27.4023438,32.703125 L27.4023438,25.0664062 L28.1660156,9.43359375 L20.2597656,32.703125 L15.0488281,32.703125 L7.12011719,9.41113281 L7.88378906,25.0664062 L7.88378906,32.703125 L0,32.703125 L0,0 L10.3544922,0 Z M37.0146484,20.3271484 C37.0146484,17.9013551 37.4863234,15.7413832 38.4296875,13.847168 C39.3730516,11.9529528 40.7281813,10.4967499 42.4951172,9.47851562 C44.2620531,8.46028137 46.3359256,7.95117188 48.7167969,7.95117188 C52.3554869,7.95117188 55.2229713,9.07795097 57.3193359,11.331543 C59.4157006,13.585135 60.4638672,16.6510223 60.4638672,20.5292969 L60.4638672,20.7988281 C60.4638672,24.5872585 59.4119571,27.5932506 57.3081055,29.8168945 C55.2042538,32.0405385 52.3554867,33.1523438 48.7617188,33.1523438 C45.3027171,33.1523438 42.5250756,32.1154075 40.4287109,30.0415039 C38.3323463,27.9676003 37.2018237,25.1562677 37.0371094,21.6074219 L37.0146484,20.3271484 Z M44.5839844,20.7988281 C44.5839844,23.0449331 44.9358689,24.6920521 45.6396484,25.7402344 C46.343428,26.7884167 47.3841077,27.3125 48.7617188,27.3125 C51.4570447,27.3125 52.8346351,25.2386275 52.8945312,21.0908203 L52.8945312,20.3271484 C52.8945312,15.9697048 51.5019671,13.7910156 48.7167969,13.7910156 C46.1861853,13.7910156 44.8160818,15.6702286 44.6064453,19.4287109 L44.5839844,20.7988281 Z M72.5019531,0 L79.8017578,22.7529297 L87.0791016,0 L97.4560547,0 L97.4560547,32.703125 L89.5498047,32.703125 L89.5498047,25.0664062 L90.3134766,9.43359375 L82.4072266,32.703125 L77.1962891,32.703125 L69.2675781,9.41113281 L70.03125,25.0664062 L70.03125,32.703125 L62.1474609,32.703125 L62.1474609,0 L72.5019531,0 Z M120.040039,26.59375 L109.236328,26.59375 L107.349609,32.703125 L98.9267578,32.703125 L110.920898,0 L118.333008,0 L130.416992,32.703125 L121.949219,32.703125 L120.040039,26.59375 Z M111.123047,20.5068359 L118.15332,20.5068359 L114.626953,9.1640625 L111.123047,20.5068359 Z" id="MoMA"></path>
        </g>
    </g>
</svg>