<?xml version="1.0" encoding="UTF-8"?>
<svg width="33px" height="29px" viewBox="0 0 33 29" version="1.1" xmlns="http://www.w3.org/2000/svg" xmlns:xlink="http://www.w3.org/1999/xlink">
    <!-- Generator: Sketch 52.2 (67145) - http://www.bohemiancoding.com/sketch -->
    <title>cart</title>
    <desc>Created with Sketch.</desc>
    <g id="3.Visual-interface" stroke="none" stroke-width="1" fill="none" fill-rule="evenodd">
        <g id="Desktop_Description" transform="translate(-1321.000000, -87.000000)" fill="#333333">
            <g id="Header">
                <g id="Navigation" transform="translate(0.000000, 64.000000)">
                    <g id="Group-52" transform="translate(1118.000000, 24.000000)">
                        <g id="cart" transform="translate(204.000000, 0.000000)">
                            <g id="29" fill-rule="nonzero">
                                <circle id="Oval" cx="14.4668305" cy="25.7886978" r="1.88697789"></circle>
                                <circle id="Oval" cx="23.2727273" cy="25.7886978" r="1.88697789"></circle>
                                <path d="M7.97564023,6.26432119 L8.29764024,7.42991251 L8.28171891,7.42991251 L11.7313868,20.1800319 C11.918337,20.8711865 12.6846581,21.4785094 13.370608,21.4785094 L25.3298295,21.4785094 C26.0182255,21.4785094 26.7925837,20.8711865 26.9868721,20.1792997 L30.2939687,8.39965227 C30.3090556,8.346212 30.3202392,8.29380089 30.32756,8.24275899 L30.7699079,6.64687061 C30.8996402,6.74747286 31.0147054,6.86652082 31.1116574,7.00233378 C31.44677,7.47127929 31.5379737,8.10056681 31.3615067,8.72839003 L28.0540607,20.5084036 C27.7178998,21.7054776 26.5210691,22.6437346 25.3298295,22.6437346 L13.3702586,22.6437346 C12.1765729,22.6437346 10.9863815,21.7007186 10.6610533,20.4977873 L7.01115646,7.00599456 L6.16376539,3.8749322 C5.76680199,2.40769287 4.41132572,1.16742171 3.2036624,1.16668955 L0.556307869,1.16522524 C0.248801007,1.16522524 1.95399252e-13,0.90421186 1.95399252e-13,0.582063505 C0.000349439617,0.260647305 0.249150447,5.32907052e-15 0.556307869,5.32907052e-15 L3.20436128,0.000732155352 C4.89599847,0.0014643107 6.7036496,1.59683082 7.23409894,3.5568107 L7.96652438,6.26432119 L7.97564023,6.26432119 Z" id="Combined-Shape" stroke="#333333"></path>
                            </g>
                            <polygon id="Rectangle-Copy-21" fill-rule="nonzero" points="10 16.014688 29 16 28.173913 17.9269608 10.826087 18"></polygon>
                            <text id="3" font-family="Roboto-Medium, Roboto" font-size="16" font-weight="400" line-spacing="12">
                                <tspan x="15" y="15">3</tspan>
                            </text>
                        </g>
                    </g>
                </g>
            </g>
        </g>
    </g>
</svg>