<?xml version="1.0" encoding="UTF-8"?>
<svg width="30px" height="30px" viewBox="0 0 30 30" version="1.1" xmlns="http://www.w3.org/2000/svg" xmlns:xlink="http://www.w3.org/1999/xlink">
    <!-- Generator: Sketch 52.2 (67145) - http://www.bohemiancoding.com/sketch -->
    <title>search</title>
    <desc>Created with Sketch.</desc>
    <g id="3.Visual-interface" stroke="none" stroke-width="1" fill="none" fill-rule="evenodd">
        <g id="Desktop_Description" transform="translate(-1117.000000, -87.000000)" fill="#333333" fill-rule="nonzero" stroke="#333333">
            <g id="Header">
                <g id="Navigation" transform="translate(0.000000, 64.000000)">
                    <g id="Group-52" transform="translate(1118.000000, 24.000000)">
                        <g id="search">
                            <path d="M19.3569147,18.6471703 C21.1691268,16.6653815 22.2766762,14.0287002 22.2766762,11.1378397 C22.2766762,4.9964722 17.2799484,0 11.1383381,0 C4.9967278,0 0,4.9964722 0,11.1378397 C0,17.2795182 4.99641669,22.2763015 11.138027,22.2763015 C14.0285443,22.2763015 16.6655074,21.1687398 18.6472742,19.3565075 L27.1436714,27.8529992 C27.3396703,28.0490003 27.6570019,28.0490003 27.8530008,27.8529992 C28.0489997,27.6569981 28.0489997,27.339663 27.8530008,27.143973 L19.3569147,18.6471703 Z M11.1383381,21.2729626 C5.55019139,21.2729626 1.00332776,16.7263596 1.00332776,11.1378397 C1.00332776,5.54931972 5.54988028,1.00302779 11.1383381,1.00302779 C16.726796,1.00302779 21.2733485,5.54931972 21.2733485,11.1378397 C21.2733485,16.7263596 16.726796,21.2729626 11.1383381,21.2729626 Z" id="Shape"></path>
                        </g>
                    </g>
                </g>
            </g>
        </g>
    </g>
</svg>