<?xml version="1.0" encoding="UTF-8"?>
<svg width="30px" height="30px" viewBox="0 0 30 30" version="1.1" xmlns="http://www.w3.org/2000/svg" xmlns:xlink="http://www.w3.org/1999/xlink">
    <!-- Generator: Sketch 52.2 (67145) - http://www.bohemiancoding.com/sketch -->
    <title>user</title>
    <desc>Created with Sketch.</desc>
    <g id="3.Visual-interface" stroke="none" stroke-width="1" fill="none" fill-rule="evenodd">
        <g id="Desktop_Description" transform="translate(-1185.000000, -87.000000)" fill="#333333" fill-rule="nonzero" stroke="#333333">
            <g id="Header">
                <g id="Navigation" transform="translate(0.000000, 64.000000)">
                    <g id="Group-52" transform="translate(1118.000000, 24.000000)">
                        <g id="user" transform="translate(68.000000, 0.000000)">
                            <path d="M21.6363636,7.00030048 C21.6363636,3.14032452 18.2107021,0 14,0 C9.78929788,0 6.36363636,3.14032452 6.36363636,7.00030048 C6.36363636,10.8596755 9.78929788,14 14,14 C18.2107021,14 21.6363636,10.8596755 21.6363636,7.00030048 Z M7.40795342,7.00030048 C7.40795342,3.66796875 10.3648851,0.956730769 14,0.956730769 C17.6354427,0.956730769 20.5920466,3.66796875 20.5920466,7.00030048 C20.5920466,10.3320312 17.6351149,13.0432692 14,13.0432692 C10.3648851,13.0432692 7.40795342,10.3320312 7.40795342,7.00030048 Z" id="Shape"></path>
                            <path d="M0,24.9848138 C0,26.8717006 1.71218823,28 3.36634168,28 L24.6336583,28 C26.288136,28 28,26.8717006 28,24.9848138 C28,22.9912 25.4847271,17.8181818 14,17.8181818 C2.51527292,17.8181818 0,22.9914948 0,24.9848138 Z M14,18.7572028 C24.5850258,18.7572028 26.9673699,23.369167 26.9673699,24.9848138 C26.9673699,26.3333483 25.7648503,27.0612738 24.6336583,27.0612738 L3.36634168,27.0612738 C2.23514972,27.0612738 1.03263009,26.3333483 1.03263009,24.9848138 C1.03263009,23.369167 3.41497418,18.7572028 14,18.7572028 Z" id="Shape"></path>
                        </g>
                    </g>
                </g>
            </g>
        </g>
    </g>
</svg>