<?xml version="1.0" encoding="UTF-8"?>
<svg width="32px" height="32px" viewBox="0 0 32 32" version="1.1" xmlns="http://www.w3.org/2000/svg" xmlns:xlink="http://www.w3.org/1999/xlink">
    <!-- Generator: Sketch 52.2 (67145) - http://www.bohemiancoding.com/sketch -->
    <title>0: Icons / Dark / Enlarge</title>
    <desc>Created with Sketch.</desc>
    <g id="Page-1" stroke="none" stroke-width="1" fill="none" fill-rule="evenodd">
        <g id="Colour-and-Icons" transform="translate(-1208.000000, -1378.000000)" fill="#000000">
            <g id="0:-Icons-/-Dark-/-Enlarge" transform="translate(1208.000000, 1378.000000)">
                <path d="M30,28 C30,29.104 29.104,30 28,30 L4,30 C2.896,30 2,29.104 2,28 L2,4 C2,2.896 2.896,2 4,2 L28,2 C29.104,2 30,2.896 30,4 L30,28 L30,28 Z M28,0 L4,0 C1.791,0 0,1.791 0,4 L0,28 C0,30.209 1.791,32 4,32 L28,32 C30.209,32 32,30.209 32,28 L32,4 C32,1.791 30.209,0 28,0 L28,0 Z M26.972,4 L18,4 C17.447,4 17,4.447 17,5 C17,5.553 17.447,6 18,6 L24.629,6 L17.83,12.799 L19.244,14.213 L26.031,7.426 L26,14 C26,14.553 26.447,15 27,15 C27.553,15 28,14.553 28,14 L28,5 C28,4.704 27.878,4.465 27.685,4.301 C27.503,4.115 27.251,4 26.972,4 L26.972,4 Z M14,26 L7.371,26 L14.171,19.201 L12.756,17.787 L5.969,24.575 L6,18 C6,17.447 5.553,17 5,17 C4.447,17 4,17.447 4,18 L4,27 C4,27.297 4.122,27.535 4.315,27.699 C4.497,27.885 4.749,28 5.028,28 L14,28 C14.553,28 15,27.553 15,27 C15,26.447 14.553,26 14,26 L14,26 Z" id="Fill-53"></path>
            </g>
        </g>
    </g>
</svg>