<?xml version="1.0" encoding="UTF-8"?>
<svg width="237px" height="30px" viewBox="0 0 237 30" version="1.1" xmlns="http://www.w3.org/2000/svg" xmlns:xlink="http://www.w3.org/1999/xlink">
    <!-- Generator: Sketch 52.2 (67145) - http://www.bohemiancoding.com/sketch -->
    <title>icon-group</title>
    <desc>Created with Sketch.</desc>
    <g id="3.Visual-interface" stroke="none" stroke-width="1" fill="none" fill-rule="evenodd">
        <g id="icon-group" transform="translate(1.000000, 1.000000)">
            <g id="search" fill="#333333" fill-rule="nonzero" stroke="#333333">
                <path d="M19.3569147,18.6471703 C21.1691268,16.6653815 22.2766762,14.0287002 22.2766762,11.1378397 C22.2766762,4.9964722 17.2799484,0 11.1383381,0 C4.9967278,0 0,4.9964722 0,11.1378397 C0,17.2795182 4.99641669,22.2763015 11.138027,22.2763015 C14.0285443,22.2763015 16.6655074,21.1687398 18.6472742,19.3565075 L27.1436714,27.8529992 C27.3396703,28.0490003 27.6570019,28.0490003 27.8530008,27.8529992 C28.0489997,27.6569981 28.0489997,27.339663 27.8530008,27.143973 L19.3569147,18.6471703 Z M11.1383381,21.2729626 C5.55019139,21.2729626 1.00332776,16.7263596 1.00332776,11.1378397 C1.00332776,5.54931972 5.54988028,1.00302779 11.1383381,1.00302779 C16.726796,1.00302779 21.2733485,5.54931972 21.2733485,11.1378397 C21.2733485,16.7263596 16.726796,21.2729626 11.1383381,21.2729626 Z" id="Shape"></path>
            </g>
            <path d="M156.364488,0 C160.398962,0 164.433437,3.28205128 164.433437,9.17043741 C164.433437,16.1206637 155.740105,22.9260935 150.745042,26.2081448 C150.600954,26.3046757 150.408836,26.3529412 150.216718,26.3529412 C150.0246,26.3529412 149.832483,26.3046757 149.688394,26.2081448 C144.693331,22.9260935 136,16.1689291 136,9.17043741 C136,3.28205128 140.034474,0 144.068948,0 C146.326333,0 148.631746,1.06184012 150.216718,3.28205128 C151.80169,1.06184012 154.107104,0 156.364488,0 Z M150.216718,24.2724458 C157.849265,19.1327517 162.352941,13.5607468 162.352941,9.28567408 C162.352941,4.57829065 159.271478,2.08049536 156.28483,2.08049536 C154.483359,2.08049536 152.918924,2.9451168 151.781153,4.53025612 L151.022639,5.63505019 C150.880418,5.82718829 150.690789,5.97129187 150.453754,6.01932639 C150.35894,6.06736092 150.311533,6.06736092 150.216718,6.06736092 C150.121904,6.06736092 150.074497,6.01932639 149.979683,6.01932639 C149.742647,5.97129187 149.553019,5.82718829 149.410797,5.63505019 L148.652283,4.53025612 C147.56192,2.9451168 145.950077,2.08049536 144.148607,2.08049536 C141.114551,2.08049536 138.080495,4.57829065 138.080495,9.28567408 C138.080495,13.5607468 142.584172,19.0847171 150.216718,24.2724458 Z" id="wishlist" fill="#000000" fill-rule="nonzero"></path>
            <g id="user" transform="translate(68.000000, 0.000000)" fill="#333333" fill-rule="nonzero" stroke="#333333">
                <path d="M21.6363636,7.00030048 C21.6363636,3.14032452 18.2107021,0 14,0 C9.78929788,0 6.36363636,3.14032452 6.36363636,7.00030048 C6.36363636,10.8596755 9.78929788,14 14,14 C18.2107021,14 21.6363636,10.8596755 21.6363636,7.00030048 Z M7.40795342,7.00030048 C7.40795342,3.66796875 10.3648851,0.956730769 14,0.956730769 C17.6354427,0.956730769 20.5920466,3.66796875 20.5920466,7.00030048 C20.5920466,10.3320312 17.6351149,13.0432692 14,13.0432692 C10.3648851,13.0432692 7.40795342,10.3320312 7.40795342,7.00030048 Z" id="Shape"></path>
                <path d="M0,24.9848138 C0,26.8717006 1.71218823,28 3.36634168,28 L24.6336583,28 C26.288136,28 28,26.8717006 28,24.9848138 C28,22.9912 25.4847271,17.8181818 14,17.8181818 C2.51527292,17.8181818 0,22.9914948 0,24.9848138 Z M14,18.7572028 C24.5850258,18.7572028 26.9673699,23.369167 26.9673699,24.9848138 C26.9673699,26.3333483 25.7648503,27.0612738 24.6336583,27.0612738 L3.36634168,27.0612738 C2.23514972,27.0612738 1.03263009,26.3333483 1.03263009,24.9848138 C1.03263009,23.369167 3.41497418,18.7572028 14,18.7572028 Z" id="Shape"></path>
            </g>
            <g id="cart" transform="translate(204.000000, 0.000000)" fill="#333333">
                <g id="29" fill-rule="nonzero">
                    <circle id="Oval" cx="14.4668305" cy="25.7886978" r="1.88697789"></circle>
                    <circle id="Oval" cx="23.2727273" cy="25.7886978" r="1.88697789"></circle>
                    <path d="M7.97564023,6.26432119 L8.29764024,7.42991251 L8.28171891,7.42991251 L11.7313868,20.1800319 C11.918337,20.8711865 12.6846581,21.4785094 13.370608,21.4785094 L25.3298295,21.4785094 C26.0182255,21.4785094 26.7925837,20.8711865 26.9868721,20.1792997 L30.2939687,8.39965227 C30.3090556,8.346212 30.3202392,8.29380089 30.32756,8.24275899 L30.7699079,6.64687061 C30.8996402,6.74747286 31.0147054,6.86652082 31.1116574,7.00233378 C31.44677,7.47127929 31.5379737,8.10056681 31.3615067,8.72839003 L28.0540607,20.5084036 C27.7178998,21.7054776 26.5210691,22.6437346 25.3298295,22.6437346 L13.3702586,22.6437346 C12.1765729,22.6437346 10.9863815,21.7007186 10.6610533,20.4977873 L7.01115646,7.00599456 L6.16376539,3.8749322 C5.76680199,2.40769287 4.41132572,1.16742171 3.2036624,1.16668955 L0.556307869,1.16522524 C0.248801007,1.16522524 1.95399252e-13,0.90421186 1.95399252e-13,0.582063505 C0.000349439617,0.260647305 0.249150447,5.32907052e-15 0.556307869,5.32907052e-15 L3.20436128,0.000732155352 C4.89599847,0.0014643107 6.7036496,1.59683082 7.23409894,3.5568107 L7.96652438,6.26432119 L7.97564023,6.26432119 Z" id="Combined-Shape" stroke="#333333"></path>
                </g>
                <polygon id="Rectangle-Copy-21" fill-rule="nonzero" points="10 16.014688 29 16 28.173913 17.9269608 10.826087 18"></polygon>
                <text id="3" font-family="Roboto-Medium, Roboto" font-size="16" font-weight="400" line-spacing="12">
                    <tspan x="15" y="15">3</tspan>
                </text>
            </g>
        </g>
    </g>
</svg>