<?xml version="1.0" encoding="UTF-8"?>
<svg width="32px" height="30px" viewBox="0 0 32 30" version="1.1" xmlns="http://www.w3.org/2000/svg" xmlns:xlink="http://www.w3.org/1999/xlink">
    <!-- Generator: Sketch 52.2 (67145) - http://www.bohemiancoding.com/sketch -->
    <title>0: Icons / Dark / Justified Text</title>
    <desc>Created with Sketch.</desc>
    <g id="Page-1" stroke="none" stroke-width="1" fill="none" fill-rule="evenodd">
        <g id="Colour-and-Icons" transform="translate(-1208.000000, -1082.000000)" fill="#000000">
            <g id="0:-Icons-/-Dark-/-Justified-Text" transform="translate(1208.000000, 1082.000000)">
                <path d="M30.8571429,9.14285714 L1.14285714,9.14285714 C0.510857143,9.14285714 0,9.65485714 0,10.2857143 C0,10.9177143 0.510857143,11.4285714 1.14285714,11.4285714 L30.8571429,11.4285714 C31.4891429,11.4285714 32,10.9177143 32,10.2857143 C32,9.65485714 31.4891429,9.14285714 30.8571429,9.14285714 L30.8571429,9.14285714 Z M30.8571429,18.2857143 L1.14285714,18.2857143 C0.510857143,18.2857143 0,18.7977143 0,19.4285714 C0,20.0605714 0.510857143,20.5714286 1.14285714,20.5714286 L30.8571429,20.5714286 C31.4891429,20.5714286 32,20.0605714 32,19.4285714 C32,18.7977143 31.4891429,18.2857143 30.8571429,18.2857143 L30.8571429,18.2857143 Z M1.14285714,2.28571429 L30.8571429,2.28571429 C31.4891429,2.28571429 32,1.77485714 32,1.14285714 C32,0.512 31.4891429,0 30.8571429,0 L1.14285714,0 C0.510857143,0 0,0.512 0,1.14285714 C0,1.77485714 0.510857143,2.28571429 1.14285714,2.28571429 L1.14285714,2.28571429 Z M18.2857143,27.4285714 L1.14285714,27.4285714 C0.510857143,27.4285714 0,27.9394286 0,28.5714286 C0,29.2034286 0.510857143,29.7142857 1.14285714,29.7142857 L18.2857143,29.7142857 C18.9177143,29.7142857 19.4285714,29.2034286 19.4285714,28.5714286 C19.4285714,27.9394286 18.9177143,27.4285714 18.2857143,27.4285714 L18.2857143,27.4285714 Z" id="Fill-196"></path>
            </g>
        </g>
    </g>
</svg>