<?xml version="1.0" standalone="no"?><!DOCTYPE svg PUBLIC "-//W3C//DTD SVG 1.1//EN" "http://www.w3.org/Graphics/SVG/1.1/DTD/svg11.dtd"><svg t="1540716777245" class="icon" style="" viewBox="0 0 1024 1024" version="1.1" xmlns="http://www.w3.org/2000/svg" p-id="16710" xmlns:xlink="http://www.w3.org/1999/xlink" width="200" height="200"><defs><style type="text/css"></style></defs><path d="M512 656c-51.2 0-99.2-19.2-136-56-75.2-75.2-75.2-196.8 0-272 36.8-36.8 84.8-56 136-56s99.2 19.2 136 56c75.2 75.2 75.2 196.8 0 272-36.8 36.8-84.8 56-136 56z m0-320c-33.6 0-65.6 12.8-91.2 36.8-49.6 49.6-49.6 131.2 0 180.8 24 24 56 36.8 91.2 36.8s65.6-12.8 91.2-36.8S640 497.6 640 464s-12.8-65.6-36.8-91.2C577.6 348.8 545.6 336 512 336z" p-id="16711"></path><path d="M512 992c-4.8 0-9.6-1.6-14.4-3.2C481.6 980.8 112 784 112 464 112 243.2 291.2 64 512 64s400 179.2 400 400c0 320-369.6 516.8-385.6 524.8-4.8 1.6-9.6 3.2-14.4 3.2z m0-864c-185.6 0-336 150.4-336 336 0 248 268.8 420.8 336 459.2 67.2-38.4 336-211.2 336-459.2 0-185.6-150.4-336-336-336z" p-id="16712"></path></svg>