<?xml version="1.0" encoding="UTF-8"?>
<svg width="32px" height="32px" viewBox="0 0 32 32" version="1.1" xmlns="http://www.w3.org/2000/svg" xmlns:xlink="http://www.w3.org/1999/xlink">
    <!-- Generator: Sketch 52.2 (67145) - http://www.bohemiancoding.com/sketch -->
    <title>0: Icons / Dark / Magnify</title>
    <desc>Created with Sketch.</desc>
    <g id="Page-1" stroke="none" stroke-width="1" fill="none" fill-rule="evenodd">
        <g id="Colour-and-Icons" transform="translate(-436.000000, -1438.000000)" fill="#000000">
            <g id="0:-Icons-/-Dark-/-Magnify" transform="translate(436.000000, 1438.000000)">
                <path d="M13.4634711,24.4563051 C7.17184899,24.4563051 2.07153407,19.4450132 2.07153407,13.2534169 C2.07153407,7.06182063 7.17184899,2.04052607 13.4634711,2.04052607 C19.7550931,2.04052607 24.8564083,7.06182063 24.8564083,13.2534169 C24.8564083,19.4450132 19.7550931,24.4563051 13.4634711,24.4563051 L13.4634711,24.4563051 Z M31.6961717,30.2578008 L23.4350418,22.1257043 C25.5975994,19.7750983 26.9269421,16.6742988 26.9269421,13.2534169 C26.9269421,5.93152922 20.8993881,0 13.4634711,0 C6.02755398,0 0,5.93152922 0,13.2534169 C0,20.565302 6.02755398,26.4968312 13.4634711,26.4968312 C16.6762994,26.4968312 19.6230591,25.386545 21.9376558,23.5360679 L30.2317941,31.6981722 C30.6368986,32.0982753 31.2920675,32.0982753 31.6961717,31.6981722 C32.1012761,31.3080716 32.1012761,30.657904 31.6961717,30.2578008 L31.6961717,30.2578008 Z" id="Fill-19"></path>
            </g>
        </g>
    </g>
</svg>