<?xml version="1.0" standalone="no"?><!DOCTYPE svg PUBLIC "-//W3C//DTD SVG 1.1//EN" "http://www.w3.org/Graphics/SVG/1.1/DTD/svg11.dtd"><svg t="1540719120921" class="icon" style="" viewBox="0 0 1024 1024" version="1.1" xmlns="http://www.w3.org/2000/svg" p-id="17389" xmlns:xlink="http://www.w3.org/1999/xlink" width="200" height="200"><defs><style type="text/css"></style></defs><path d="M951.003465 512q0 119.442286-58.88 220.306286t-159.744 159.744-220.306286 58.88q-63.414857 0-124.562286-18.285714 33.718857-53.174857 44.544-93.696 5.12-19.456 30.866286-120.539429 11.410286 22.308571 41.691429 38.546286t65.170286 16.310857q69.12 0 123.465143-39.131429t83.968-107.739429 29.696-154.258286q0-65.170286-34.011429-122.294857t-98.596571-93.110857-145.700571-35.986286q-59.977143 0-111.981714 16.603429t-88.283429 44.032-62.317714 63.122286-38.253714 74.020571-12.288 76.580571q0 59.465143 22.820571 104.594286t66.852571 63.414857q17.115429 6.875429 21.723429-11.410286 1.170286-4.022857 4.534857-17.700571t4.534857-17.115429q3.437714-13.165714-6.290286-24.576-29.110857-34.889143-29.110857-86.308571 0-86.308571 59.684571-148.260571t156.306286-62.025143q86.308571 0 134.582857 46.884571t48.274286 121.709714q0 97.133714-39.131429 165.156571t-100.278857 68.022857q-34.889143 0-56.027429-24.868571t-13.165714-59.684571q4.534857-19.968 15.140571-53.394286t17.115429-58.88 6.582857-43.154286q0-28.598857-15.433143-47.396571t-44.032-18.870857q-35.401143 0-59.977143 32.548571t-24.576 81.115429q0 41.691429 14.262857 69.705143l-56.539429 238.884571q-9.728 40.009143-7.460571 101.156571-117.686857-52.004571-190.317714-160.548571t-72.557714-241.737143q0-119.442286 58.88-220.306286t159.744-159.744 220.306286-58.88 220.306286 58.88 159.744 159.744 58.88 220.306286z" p-id="17390"></path></svg>