<?xml version="1.0" encoding="UTF-8"?>
<svg width="29px" height="27px" viewBox="0 0 29 27" version="1.1" xmlns="http://www.w3.org/2000/svg" xmlns:xlink="http://www.w3.org/1999/xlink">
    <!-- Generator: Sketch 52.2 (67145) - http://www.bohemiancoding.com/sketch -->
    <title>wishlist</title>
    <desc>Created with Sketch.</desc>
    <g id="3.Visual-interface" stroke="none" stroke-width="1" fill="none" fill-rule="evenodd">
        <g id="Desktop_Description" transform="translate(-1254.000000, -88.000000)" fill="#000000" fill-rule="nonzero">
            <g id="Header">
                <g id="Navigation" transform="translate(0.000000, 64.000000)">
                    <g id="Group-52" transform="translate(1118.000000, 24.000000)">
                        <path d="M156.364488,0 C160.398962,0 164.433437,3.28205128 164.433437,9.17043741 C164.433437,16.1206637 155.740105,22.9260935 150.745042,26.2081448 C150.600954,26.3046757 150.408836,26.3529412 150.216718,26.3529412 C150.0246,26.3529412 149.832483,26.3046757 149.688394,26.2081448 C144.693331,22.9260935 136,16.1689291 136,9.17043741 C136,3.28205128 140.034474,0 144.068948,0 C146.326333,0 148.631746,1.06184012 150.216718,3.28205128 C151.80169,1.06184012 154.107104,0 156.364488,0 Z M150.216718,24.2724458 C157.849265,19.1327517 162.352941,13.5607468 162.352941,9.28567408 C162.352941,4.57829065 159.271478,2.08049536 156.28483,2.08049536 C154.483359,2.08049536 152.918924,2.9451168 151.781153,4.53025612 L151.022639,5.63505019 C150.880418,5.82718829 150.690789,5.97129187 150.453754,6.01932639 C150.35894,6.06736092 150.311533,6.06736092 150.216718,6.06736092 C150.121904,6.06736092 150.074497,6.01932639 149.979683,6.01932639 C149.742647,5.97129187 149.553019,5.82718829 149.410797,5.63505019 L148.652283,4.53025612 C147.56192,2.9451168 145.950077,2.08049536 144.148607,2.08049536 C141.114551,2.08049536 138.080495,4.57829065 138.080495,9.28567408 C138.080495,13.5607468 142.584172,19.0847171 150.216718,24.2724458 Z" id="wishlist"></path>
                    </g>
                </g>
            </g>
        </g>
    </g>
</svg>